<?xml version="1.0" encoding="UTF-8"?>
<svg xmlns="http://www.w3.org/2000/svg" width="920" height="420" viewBox="0 0 920 420" role="img" aria-label="System overview">
  <defs>
    <style>
      .bg { fill: #0b1220; }
      .card { fill: #121a2b; stroke: #2a3a55; stroke-width: 1.5; }
      .card-hi { fill: #152238; stroke: #3d7eff; stroke-width: 1.8; }
      .t { fill: #e8eef9; font-family: Segoe UI, system-ui, sans-serif; font-size: 14px; }
      .t-sm { fill: #a8b6cc; font-family: Segoe UI, system-ui, sans-serif; font-size: 11px; }
      .t-title { fill: #ffffff; font-family: Segoe UI, system-ui, sans-serif; font-size: 16px; font-weight: 600; }
      .accent { fill: #3d7eff; }
      .ok { fill: #2ecc71; }
      .line { stroke: #4a6080; stroke-width: 1.6; fill: none; }
      .arrow { stroke: #3d7eff; stroke-width: 1.8; fill: none; marker-end: url(#arr); }
    </style>
    <marker id="arr" markerWidth="8" markerHeight="8" refX="6" refY="3" orient="auto">
      <path d="M0,0 L6,3 L0,6 Z" fill="#3d7eff"/>
    </marker>
  </defs>
  <rect class="bg" width="920" height="420" rx="12"/>
  
  <text class="t-title" x="24" y="36">System overview — four planes</text>
  <rect class="card" x="40" y="60" width="200" height="90" rx="10"/>
  <text class="t" x="60" y="95">Ops Console</text>
  <text class="t-sm" x="60" y="120">Next.js /app/*</text>
  <text class="t-sm" x="60" y="138">Live API client</text>
  <rect class="card-hi" x="280" y="60" width="200" height="90" rx="10"/>
  <text class="t" x="300" y="95">Control plane</text>
  <text class="t-sm" x="300" y="120">FastAPI + runtime</text>
  <text class="t-sm" x="300" y="138">Auth · DNA · gates</text>
  <rect class="card" x="520" y="60" width="200" height="90" rx="10"/>
  <text class="t" x="540" y="95">Business OS</text>
  <text class="t-sm" x="540" y="120">business/* artifacts</text>
  <text class="t-sm" x="540" y="138">PI · evals · gov</text>
  <rect class="card" x="700" y="200" width="180" height="90" rx="10"/>
  <text class="t" x="720" y="235">Domain packs</text>
  <text class="t-sm" x="720" y="260">video · examples</text>
  <text class="t-sm" x="720" y="278">agents + DNA</text>
  <rect class="card" x="40" y="200" width="200" height="90" rx="10"/>
  <text class="t" x="60" y="235">Agent harness</text>
  <text class="t-sm" x="60" y="260">.trae / .grok</text>
  <text class="t-sm" x="60" y="278">rules · skills</text>
  <rect class="card" x="280" y="200" width="200" height="90" rx="10"/>
  <text class="t" x="300" y="235">Persistence</text>
  <text class="t-sm" x="300" y="260">Postgres / JSON</text>
  <text class="t-sm" x="300" y="278">audit · memory</text>
  <rect class="card" x="520" y="200" width="160" height="90" rx="10"/>
  <text class="t" x="540" y="235">Tools</text>
  <text class="t-sm" x="540" y="260">adapters</text>
  <text class="t-sm" x="540" y="278">tool_effects</text>
  <path class="arrow" d="M240 105 H275"/>
  <path class="arrow" d="M480 105 H515"/>
  <path class="arrow" d="M380 150 V195"/>
  <path class="arrow" d="M620 150 V195"/>
  <path class="arrow" d="M140 150 V195"/>
  <path class="arrow" d="M700 105 H740 V195"/>
  <text class="t-sm" x="40" y="340">N1: domain logic stays in pack · host executes DNA, tools, gates only</text>
  <text class="t-sm" x="40" y="365">No second control plane · evolution never mutates production DNA directly</text>
  <text class="t-sm" x="40" y="390">Executable bar: E1 path + viral-hook DNA (stubs) · not full live media studio</text>

</svg>
