<?xml version="1.0" encoding="UTF-8"?>
<svg xmlns="http://www.w3.org/2000/svg" width="920" height="380" viewBox="0 0 920 380" role="img" aria-label="Console map">
  <defs>
    <style>
      .bg { fill: #0b1220; }
      .card { fill: #121a2b; stroke: #2a3a55; stroke-width: 1.5; }
      .card-hi { fill: #152238; stroke: #3d7eff; stroke-width: 1.8; }
      .t { fill: #e8eef9; font-family: Segoe UI, system-ui, sans-serif; font-size: 14px; }
      .t-sm { fill: #a8b6cc; font-family: Segoe UI, system-ui, sans-serif; font-size: 11px; }
      .t-title { fill: #ffffff; font-family: Segoe UI, system-ui, sans-serif; font-size: 16px; font-weight: 600; }
      .accent { fill: #3d7eff; }
      .ok { fill: #2ecc71; }
      .line { stroke: #4a6080; stroke-width: 1.6; fill: none; }
      .arrow { stroke: #3d7eff; stroke-width: 1.8; fill: none; marker-end: url(#arr); }
    </style>
    <marker id="arr" markerWidth="8" markerHeight="8" refX="6" refY="3" orient="auto">
      <path d="M0,0 L6,3 L0,6 Z" fill="#3d7eff"/>
    </marker>
  </defs>
  <rect class="bg" width="920" height="380" rx="12"/>
  
  <text class="t-title" x="24" y="36">Ops console map</text>
  <rect class="card" x="20" y="55" width="160" height="300" rx="10"/>
  <text class="t" x="40" y="85">Sidebar</text>
  <text class="t-sm" x="40" y="115">Dashboard</text>
  <text class="t-sm" x="40" y="135">Agents</text>
  <text class="t" x="40" y="160" fill="#3d7eff">Domains</text>
  <text class="t-sm" x="40" y="185">Tools</text>
  <text class="t-sm" x="40" y="205">Workflows</text>
  <text class="t-sm" x="40" y="225">Approvals</text>
  <text class="t-sm" x="40" y="250">Knowledge</text>
  <text class="t-sm" x="40" y="270">Memory</text>
  <text class="t-sm" x="40" y="290">Evaluations</text>
  <text class="t-sm" x="40" y="310">Processes</text>
  <text class="t-sm" x="40" y="330">Evolution</text>
  <rect class="card-hi" x="200" y="55" width="680" height="300" rx="10"/>
  <text class="t" x="220" y="90">Main content · /app/domains example</text>
  <rect class="card" x="230" y="110" width="280" height="100" rx="8"/>
  <text class="t-sm" x="250" y="140">Recommend workflow</text>
  <text class="t-sm" x="250" y="160">brief to ranked DNA</text>
  <text class="t-sm" x="250" y="180">confidence + alts</text>
  <rect class="card" x="530" y="110" width="280" height="100" rx="8"/>
  <text class="t-sm" x="550" y="140">Special skills</text>
  <text class="t-sm" x="550" y="160">17 pack integrations</text>
  <text class="t-sm" x="550" y="180">status + scores</text>
  <rect class="card" x="230" y="230" width="580" height="90" rx="8"/>
  <text class="t-sm" x="250" y="265">Domain pack roster · N3 agents · not live media studio</text>
  <text class="t-sm" x="250" y="290">Real APIs when NEXT_PUBLIC_DEMO_MODE is not true</text>

</svg>
