<?xml version="1.0" encoding="UTF-8"?>
<svg xmlns="http://www.w3.org/2000/svg" width="880" height="300" viewBox="0 0 880 300" role="img" aria-label="Governance">
  <defs>
    <style>
      .bg { fill: #0b1220; }
      .card { fill: #121a2b; stroke: #2a3a55; stroke-width: 1.5; }
      .card-hi { fill: #152238; stroke: #3d7eff; stroke-width: 1.8; }
      .t { fill: #e8eef9; font-family: Segoe UI, system-ui, sans-serif; font-size: 14px; }
      .t-sm { fill: #a8b6cc; font-family: Segoe UI, system-ui, sans-serif; font-size: 11px; }
      .t-title { fill: #ffffff; font-family: Segoe UI, system-ui, sans-serif; font-size: 16px; font-weight: 600; }
      .accent { fill: #3d7eff; }
      .ok { fill: #2ecc71; }
      .line { stroke: #4a6080; stroke-width: 1.6; fill: none; }
      .arrow { stroke: #3d7eff; stroke-width: 1.8; fill: none; marker-end: url(#arr); }
    </style>
    <marker id="arr" markerWidth="8" markerHeight="8" refX="6" refY="3" orient="auto">
      <path d="M0,0 L6,3 L0,6 Z" fill="#3d7eff"/>
    </marker>
  </defs>
  <rect class="bg" width="880" height="300" rx="12"/>
  
  <text class="t-title" x="24" y="36">Risk tiers and human gates</text>
  <rect class="card" x="30" y="70" width="180" height="100" rx="10"/>
  <text class="t" x="50" y="105">R0–R1</text>
  <text class="t-sm" x="50" y="130">Read / draft</text>
  <text class="t-sm" x="50" y="150">Auto allowed</text>
  <rect class="card" x="240" y="70" width="180" height="100" rx="10"/>
  <text class="t" x="260" y="105">R2</text>
  <text class="t-sm" x="260" y="130">Reversible write</text>
  <text class="t-sm" x="260" y="150">Soft gate / log</text>
  <rect class="card-hi" x="450" y="70" width="180" height="100" rx="10"/>
  <text class="t" x="470" y="105">R3–R4</text>
  <text class="t-sm" x="470" y="130">Irreversible</text>
  <text class="t-sm" x="470" y="150">Human approve</text>
  <rect class="card" x="660" y="70" width="180" height="100" rx="10"/>
  <text class="t" x="680" y="105">Audit</text>
  <text class="t-sm" x="680" y="130">Every decision</text>
  <text class="t-sm" x="680" y="150">tool_effects</text>
  <text class="t-sm" x="30" y="220">UI: Approvals queue · decision panel · request_id on errors</text>
  <text class="t-sm" x="30" y="245">Policy: business/governance/* · rules/60-human-approval.md</text>

</svg>
