<?xml version="1.0" encoding="UTF-8"?>
<svg xmlns="http://www.w3.org/2000/svg" width="900" height="260" viewBox="0 0 900 260" role="img" aria-label="Self improve">
  <defs>
    <style>
      .bg { fill: #0b1220; }
      .card { fill: #121a2b; stroke: #2a3a55; stroke-width: 1.5; }
      .card-hi { fill: #152238; stroke: #3d7eff; stroke-width: 1.8; }
      .t { fill: #e8eef9; font-family: Segoe UI, system-ui, sans-serif; font-size: 14px; }
      .t-sm { fill: #a8b6cc; font-family: Segoe UI, system-ui, sans-serif; font-size: 11px; }
      .t-title { fill: #ffffff; font-family: Segoe UI, system-ui, sans-serif; font-size: 16px; font-weight: 600; }
      .accent { fill: #3d7eff; }
      .ok { fill: #2ecc71; }
      .line { stroke: #4a6080; stroke-width: 1.6; fill: none; }
      .arrow { stroke: #3d7eff; stroke-width: 1.8; fill: none; marker-end: url(#arr); }
    </style>
    <marker id="arr" markerWidth="8" markerHeight="8" refX="6" refY="3" orient="auto">
      <path d="M0,0 L6,3 L0,6 Z" fill="#3d7eff"/>
    </marker>
  </defs>
  <rect class="bg" width="900" height="260" rx="12"/>
  
  <text class="t-title" x="24" y="36">Self-improvement closed loop</text>
  <rect class="card" x="50" y="80" width="130" height="70" rx="8"/><text class="t-sm" x="75" y="120">Run ends</text>
  <path class="arrow" d="M185 115 H215"/>
  <rect class="card" x="215" y="80" width="130" height="70" rx="8"/><text class="t-sm" x="250" y="120">Reflect</text>
  <path class="arrow" d="M350 115 H380"/>
  <rect class="card" x="380" y="80" width="130" height="70" rx="8"/><text class="t-sm" x="415" y="120">Lessons</text>
  <path class="arrow" d="M515 115 H545"/>
  <rect class="card" x="545" y="80" width="130" height="70" rx="8"/><text class="t-sm" x="575" y="120">Propose</text>
  <path class="arrow" d="M680 115 H710"/>
  <rect class="card-hi" x="710" y="80" width="140" height="70" rx="8"/><text class="t-sm" x="740" y="120">Loop DNA</text>
  <text class="t-sm" x="50" y="190">APIs: improvement/reflect · lessons · auto-propose · loops/run</text>

</svg>
