<?xml version="1.0" encoding="UTF-8"?>
<svg xmlns="http://www.w3.org/2000/svg" width="940" height="240" viewBox="0 0 940 240" role="img" aria-label="E1 path">
  <defs>
    <style>
      .bg { fill: #0b1220; }
      .card { fill: #121a2b; stroke: #2a3a55; stroke-width: 1.5; }
      .card-hi { fill: #152238; stroke: #3d7eff; stroke-width: 1.8; }
      .t { fill: #e8eef9; font-family: Segoe UI, system-ui, sans-serif; font-size: 14px; }
      .t-sm { fill: #a8b6cc; font-family: Segoe UI, system-ui, sans-serif; font-size: 11px; }
      .t-title { fill: #ffffff; font-family: Segoe UI, system-ui, sans-serif; font-size: 16px; font-weight: 600; }
      .accent { fill: #3d7eff; }
      .ok { fill: #2ecc71; }
      .line { stroke: #4a6080; stroke-width: 1.6; fill: none; }
      .arrow { stroke: #3d7eff; stroke-width: 1.8; fill: none; marker-end: url(#arr); }
    </style>
    <marker id="arr" markerWidth="8" markerHeight="8" refX="6" refY="3" orient="auto">
      <path d="M0,0 L6,3 L0,6 Z" fill="#3d7eff"/>
    </marker>
  </defs>
  <rect class="bg" width="940" height="240" rx="12"/>
  
  <text class="t-title" x="24" y="36">E1 operator path (flagship)</text>
  <rect class="card" x="20" y="70" width="100" height="70" rx="8"/><text class="t-sm" x="45" y="110">Login</text>
  <path class="arrow" d="M125 105 H150"/>
  <rect class="card" x="150" y="70" width="100" height="70" rx="8"/><text class="t-sm" x="165" y="110">List WFs</text>
  <path class="arrow" d="M255 105 H280"/>
  <rect class="card" x="280" y="70" width="100" height="70" rx="8"/><text class="t-sm" x="300" y="110">Create</text>
  <path class="arrow" d="M385 105 H410"/>
  <rect class="card-hi" x="410" y="70" width="110" height="70" rx="8"/><text class="t-sm" x="430" y="100">Run now</text><text class="t-sm" x="430" y="120">onboarding</text>
  <path class="arrow" d="M525 105 H550"/>
  <rect class="card" x="550" y="70" width="100" height="70" rx="8"/><text class="t-sm" x="565" y="100">Approve</text><text class="t-sm" x="565" y="120">billing</text>
  <path class="arrow" d="M655 105 H680"/>
  <rect class="card" x="680" y="70" width="100" height="70" rx="8"/><text class="t-sm" x="700" y="110">Done</text>
  <path class="arrow" d="M785 105 H810"/>
  <rect class="card" x="810" y="70" width="100" height="70" rx="8"/><text class="t-sm" x="825" y="100">Improve</text><text class="t-sm" x="825" y="120">reflect</text>
  <text class="t-sm" x="20" y="180">Workflow: wf_customer_onboarding_v12 · case_id required · human gate on billing</text>
  <text class="t-sm" x="20" y="205">Proof: backend/app/tests/e2e/test_e1_operator_path.py</text>

</svg>
