<?xml version="1.0" encoding="UTF-8"?>
<svg xmlns="http://www.w3.org/2000/svg" width="920" height="280" viewBox="0 0 920 280" role="img" aria-label="PI evolution">
  <defs>
    <style>
      .bg { fill: #0b1220; }
      .card { fill: #121a2b; stroke: #2a3a55; stroke-width: 1.5; }
      .card-hi { fill: #152238; stroke: #3d7eff; stroke-width: 1.8; }
      .t { fill: #e8eef9; font-family: Segoe UI, system-ui, sans-serif; font-size: 14px; }
      .t-sm { fill: #a8b6cc; font-family: Segoe UI, system-ui, sans-serif; font-size: 11px; }
      .t-title { fill: #ffffff; font-family: Segoe UI, system-ui, sans-serif; font-size: 16px; font-weight: 600; }
      .accent { fill: #3d7eff; }
      .ok { fill: #2ecc71; }
      .line { stroke: #4a6080; stroke-width: 1.6; fill: none; }
      .arrow { stroke: #3d7eff; stroke-width: 1.8; fill: none; marker-end: url(#arr); }
    </style>
    <marker id="arr" markerWidth="8" markerHeight="8" refX="6" refY="3" orient="auto">
      <path d="M0,0 L6,3 L0,6 Z" fill="#3d7eff"/>
    </marker>
  </defs>
  <rect class="bg" width="920" height="280" rx="12"/>
  
  <text class="t-title" x="24" y="36">Process intelligence to evolution loop</text>
  <rect class="card" x="30" y="70" width="150" height="90" rx="8"/><text class="t-sm" x="50" y="115">Event logs</text>
  <path class="arrow" d="M185 115 H215"/>
  <rect class="card" x="215" y="70" width="150" height="90" rx="8"/><text class="t-sm" x="235" y="115">Discover</text>
  <path class="arrow" d="M370 115 H400"/>
  <rect class="card" x="400" y="70" width="150" height="90" rx="8"/><text class="t-sm" x="420" y="115">Bottlenecks</text>
  <path class="arrow" d="M555 115 H585"/>
  <rect class="card-hi" x="585" y="70" width="150" height="90" rx="8"/><text class="t-sm" x="605" y="115">Sandbox</text>
  <path class="arrow" d="M740 115 H770"/>
  <rect class="card" x="770" y="70" width="120" height="90" rx="8"/><text class="t-sm" x="795" y="115">Canary</text>
  <text class="t-sm" x="30" y="200">UI: Processes · Evolution archive · Improve pipeline on runs</text>
  <text class="t-sm" x="30" y="225">Never promote without evaluate · rollback path required</text>

</svg>
