<?xml version="1.0" encoding="UTF-8"?>
<svg xmlns="http://www.w3.org/2000/svg" width="900" height="280" viewBox="0 0 900 280" role="img" aria-label="Extend pack">
  <defs>
    <style>
      .bg { fill: #0b1220; }
      .card { fill: #121a2b; stroke: #2a3a55; stroke-width: 1.5; }
      .card-hi { fill: #152238; stroke: #3d7eff; stroke-width: 1.8; }
      .t { fill: #e8eef9; font-family: Segoe UI, system-ui, sans-serif; font-size: 14px; }
      .t-sm { fill: #a8b6cc; font-family: Segoe UI, system-ui, sans-serif; font-size: 11px; }
      .t-title { fill: #ffffff; font-family: Segoe UI, system-ui, sans-serif; font-size: 16px; font-weight: 600; }
      .accent { fill: #3d7eff; }
      .ok { fill: #2ecc71; }
      .line { stroke: #4a6080; stroke-width: 1.6; fill: none; }
      .arrow { stroke: #3d7eff; stroke-width: 1.8; fill: none; marker-end: url(#arr); }
    </style>
    <marker id="arr" markerWidth="8" markerHeight="8" refX="6" refY="3" orient="auto">
      <path d="M0,0 L6,3 L0,6 Z" fill="#3d7eff"/>
    </marker>
  </defs>
  <rect class="bg" width="900" height="280" rx="12"/>
  
  <text class="t-title" x="24" y="36">Extend with a domain pack (expert)</text>
  <rect class="card" x="40" y="70" width="180" height="110" rx="10"/><text class="t" x="60" y="105">1. Manifest</text><text class="t-sm" x="60" y="130">agents + DNA</text>
  <path class="arrow" d="M225 125 H255"/>
  <rect class="card" x="255" y="70" width="180" height="110" rx="10"/><text class="t" x="275" y="105">2. Register</text><text class="t-sm" x="275" y="130">inventory</text>
  <path class="arrow" d="M440 125 H470"/>
  <rect class="card" x="470" y="70" width="180" height="110" rx="10"/><text class="t" x="490" y="105">3. Wire tools</text><text class="t-sm" x="490" y="130">allow-list</text>
  <path class="arrow" d="M655 125 H685"/>
  <rect class="card-hi" x="685" y="70" width="180" height="110" rx="10"/><text class="t" x="705" y="105">4. Prove</text><text class="t-sm" x="705" y="130">golden + E2E</text>
  <text class="t-sm" x="40" y="220">Runbook: docs/add-domain-pack-runbook.md</text>
  <text class="t-sm" x="40" y="245">Keep pack logic in business/domain · do not fork control plane</text>

</svg>
