<svg xmlns="http://www.w3.org/2000/svg" width="1400" height="900" viewBox="0 0 1400 900">
  <defs>
    <style>
      .title { font: 700 28px Arial, sans-serif; fill: #0f172a; }
      .label { font: 700 17px Arial, sans-serif; fill: #0f172a; }
      .text { font: 14px Arial, sans-serif; fill: #334155; }
      .box { rx: 16; ry: 16; stroke-width: 2.5; }
      .arrow { stroke: #475569; stroke-width: 3; fill: none; marker-end: url(#head); }
    </style>
    <marker id="head" markerWidth="12" markerHeight="12" refX="10" refY="6" orient="auto">
      <path d="M0,0 L12,6 L0,12 z" fill="#475569"/>
    </marker>
  </defs>

  <rect width="1400" height="900" fill="#f8fafc"/>
  <text x="700" y="48" text-anchor="middle" class="title">Frontend Delivery Roadmap</text>

  <rect x="50" y="110" width="160" height="85" class="box" fill="#dbeafe" stroke="#2563eb"/>
  <text x="130" y="145" text-anchor="middle" class="label">Phase 0</text>
  <text x="130" y="170" text-anchor="middle" class="text">Contracts</text>

  <rect x="240" y="110" width="160" height="85" class="box" fill="#dbeafe" stroke="#2563eb"/>
  <text x="320" y="145" text-anchor="middle" class="label">Phase 1</text>
  <text x="320" y="170" text-anchor="middle" class="text">Project setup</text>

  <rect x="430" y="110" width="160" height="85" class="box" fill="#dbeafe" stroke="#2563eb"/>
  <text x="510" y="145" text-anchor="middle" class="label">Phase 2</text>
  <text x="510" y="170" text-anchor="middle" class="text">Trae + MCP</text>

  <rect x="620" y="110" width="160" height="85" class="box" fill="#dbeafe" stroke="#2563eb"/>
  <text x="700" y="145" text-anchor="middle" class="label">Phase 3</text>
  <text x="700" y="170" text-anchor="middle" class="text">Design system</text>

  <rect x="810" y="110" width="160" height="85" class="box" fill="#dbeafe" stroke="#2563eb"/>
  <text x="890" y="145" text-anchor="middle" class="label">Phase 4</text>
  <text x="890" y="170" text-anchor="middle" class="text">Auth UI</text>

  <rect x="1000" y="110" width="160" height="85" class="box" fill="#dbeafe" stroke="#2563eb"/>
  <text x="1080" y="145" text-anchor="middle" class="label">Phase 5</text>
  <text x="1080" y="170" text-anchor="middle" class="text">App shell</text>

  <rect x="1190" y="110" width="160" height="85" class="box" fill="#dbeafe" stroke="#2563eb"/>
  <text x="1270" y="145" text-anchor="middle" class="label">Phase 6</text>
  <text x="1270" y="170" text-anchor="middle" class="text">Dashboard</text>

  <rect x="140" y="340" width="170" height="85" class="box" fill="#dcfce7" stroke="#16a34a"/>
  <text x="225" y="375" text-anchor="middle" class="label">Phase 7</text>
  <text x="225" y="400" text-anchor="middle" class="text">Agents + tools</text>

  <rect x="350" y="340" width="170" height="85" class="box" fill="#dcfce7" stroke="#16a34a"/>
  <text x="435" y="375" text-anchor="middle" class="label">Phase 8</text>
  <text x="435" y="400" text-anchor="middle" class="text">Workflows</text>

  <rect x="560" y="340" width="170" height="85" class="box" fill="#dcfce7" stroke="#16a34a"/>
  <text x="645" y="375" text-anchor="middle" class="label">Phase 9</text>
  <text x="645" y="400" text-anchor="middle" class="text">Realtime run UI</text>

  <rect x="770" y="340" width="170" height="85" class="box" fill="#dcfce7" stroke="#16a34a"/>
  <text x="855" y="375" text-anchor="middle" class="label">Phase 10</text>
  <text x="855" y="400" text-anchor="middle" class="text">Approvals</text>

  <rect x="980" y="340" width="170" height="85" class="box" fill="#dcfce7" stroke="#16a34a"/>
  <text x="1065" y="375" text-anchor="middle" class="label">Phase 11</text>
  <text x="1065" y="400" text-anchor="middle" class="text">Knowledge + memory</text>

  <rect x="1190" y="340" width="170" height="85" class="box" fill="#dcfce7" stroke="#16a34a"/>
  <text x="1275" y="375" text-anchor="middle" class="label">Phase 12</text>
  <text x="1275" y="400" text-anchor="middle" class="text">Evaluations + processes</text>

  <rect x="360" y="570" width="250" height="95" class="box" fill="#fef3c7" stroke="#d97706"/>
  <text x="485" y="608" text-anchor="middle" class="label">Phase 13</text>
  <text x="485" y="636" text-anchor="middle" class="text">Audit logs + settings</text>

  <rect x="790" y="570" width="270" height="95" class="box" fill="#fee2e2" stroke="#dc2626"/>
  <text x="925" y="608" text-anchor="middle" class="label">Phase 14</text>
  <text x="925" y="636" text-anchor="middle" class="text">Quality, security, release</text>

  <line x1="210" y1="152" x2="240" y2="152" class="arrow"/>
  <line x1="400" y1="152" x2="430" y2="152" class="arrow"/>
  <line x1="590" y1="152" x2="620" y2="152" class="arrow"/>
  <line x1="780" y1="152" x2="810" y2="152" class="arrow"/>
  <line x1="970" y1="152" x2="1000" y2="152" class="arrow"/>
  <line x1="1160" y1="152" x2="1190" y2="152" class="arrow"/>

  <line x1="1270" y1="195" x2="1270" y2="255" class="arrow"/>
  <line x1="1270" y1="255" x2="225" y2="255" class="arrow"/>
  <line x1="225" y1="255" x2="225" y2="340" class="arrow"/>

  <line x1="310" y1="382" x2="350" y2="382" class="arrow"/>
  <line x1="520" y1="382" x2="560" y2="382" class="arrow"/>
  <line x1="730" y1="382" x2="770" y2="382" class="arrow"/>
  <line x1="940" y1="382" x2="980" y2="382" class="arrow"/>
  <line x1="1150" y1="382" x2="1190" y2="382" class="arrow"/>

  <line x1="1275" y1="425" x2="1275" y2="500" class="arrow"/>
  <line x1="1275" y1="500" x2="485" y2="500" class="arrow"/>
  <line x1="485" y1="500" x2="485" y2="570" class="arrow"/>

  <line x1="610" y1="617" x2="790" y2="617" class="arrow"/>

  <rect x="120" y="760" width="1160" height="70" class="box" fill="#ffffff" stroke="#94a3b8"/>
  <text x="700" y="802" text-anchor="middle" class="text">The roadmap moves from contracts and design governance, to product surfaces, to realtime operations, and finally to release confidence.</text>
</svg>
