<svg xmlns="http://www.w3.org/2000/svg" width="1400" height="780" viewBox="0 0 1400 780">
  <defs>
    <style>
      .title { font: 700 26px Arial, sans-serif; fill: #0f172a; }
      .label { font: 700 16px Arial, sans-serif; fill: #0f172a; }
      .text { font: 13px Arial, sans-serif; fill: #334155; }
      .small { font: 12px Arial, sans-serif; fill: #475569; }
      .box { rx: 14; ry: 14; stroke-width: 2.5; }
      .arrow { stroke: #475569; stroke-width: 2.5; fill: none; marker-end: url(#head); }
    </style>
    <marker id="head" markerWidth="12" markerHeight="12" refX="10" refY="6" orient="auto">
      <path d="M0,0 L12,6 L0,12 z" fill="#475569"/>
    </marker>
  </defs>

  <rect width="1400" height="780" fill="#f8fafc"/>
  <text x="700" y="44" text-anchor="middle" class="title">Product Bar Roadmap (plan_to_mark_100) — Done</text>
  <text x="700" y="72" text-anchor="middle" class="small">P0–P5 closed &#183; E1 operator path pass &#183; Self-improvement layer shipped</text>

  <!-- Row 1: P0-P2 -->
  <rect x="80" y="120" width="240" height="110" class="box" fill="#dbeafe" stroke="#2563eb"/>
  <text x="200" y="158" text-anchor="middle" class="label">P0 Baseline</text>
  <text x="200" y="186" text-anchor="middle" class="text">Scorecard freeze</text>
  <text x="200" y="208" text-anchor="middle" class="text">Postgres decision locked</text>

  <rect x="380" y="120" width="240" height="110" class="box" fill="#dcfce7" stroke="#16a34a"/>
  <text x="500" y="158" text-anchor="middle" class="label">P1 Real execution</text>
  <text x="500" y="186" text-anchor="middle" class="text">Tool adapters</text>
  <text x="500" y="208" text-anchor="middle" class="text">tool_effects + gates</text>

  <rect x="680" y="120" width="240" height="110" class="box" fill="#dcfce7" stroke="#16a34a"/>
  <text x="800" y="158" text-anchor="middle" class="label">P2 Durable store</text>
  <text x="800" y="186" text-anchor="middle" class="text">Postgres runtime_state</text>
  <text x="800" y="208" text-anchor="middle" class="text">Restart test + runbook</text>

  <rect x="980" y="120" width="280" height="110" class="box" fill="#dcfce7" stroke="#16a34a"/>
  <text x="1120" y="158" text-anchor="middle" class="label">P3 PI + Evolution</text>
  <text x="1120" y="186" text-anchor="middle" class="text">PI disk artifacts</text>
  <text x="1120" y="208" text-anchor="middle" class="text">Corpus eval / canary / rollback</text>

  <!-- Row 2: P4-P5 + SI -->
  <rect x="200" y="320" width="280" height="120" class="box" fill="#dcfce7" stroke="#16a34a"/>
  <text x="340" y="360" text-anchor="middle" class="label">P4 FE + corpus</text>
  <text x="340" y="390" text-anchor="middle" class="text">Real forms + OpenAPI</text>
  <text x="340" y="412" text-anchor="middle" class="text">&#8805;20 golden + model card</text>

  <rect x="540" y="320" width="280" height="120" class="box" fill="#dcfce7" stroke="#16a34a"/>
  <text x="680" y="360" text-anchor="middle" class="label">P5 Retrieval + 100</text>
  <text x="680" y="390" text-anchor="middle" class="text">Tier 0/1 retrieval</text>
  <text x="680" y="412" text-anchor="middle" class="text">Scorecard + verification</text>

  <rect x="880" y="320" width="300" height="120" class="box" fill="#ede9fe" stroke="#7c3aed"/>
  <text x="1030" y="360" text-anchor="middle" class="label">Self-improvement</text>
  <text x="1030" y="390" text-anchor="middle" class="text">Reflect &#8594; propose &#8594; canary</text>
  <text x="1030" y="412" text-anchor="middle" class="text">Loops + K1-lite graph</text>

  <!-- E1 bar -->
  <rect x="200" y="520" width="980" height="90" class="box" fill="#ecfdf5" stroke="#059669"/>
  <text x="690" y="560" text-anchor="middle" class="label">E1 Operator Path (PASS)</text>
  <text x="690" y="590" text-anchor="middle" class="text">login &#8594; live lists &#8594; create &#8594; Run now &#8594; human gate &#8594; complete &#8594; Improve pipeline &#8594; archive</text>

  <line x1="320" y1="175" x2="380" y2="175" class="arrow"/>
  <line x1="620" y1="175" x2="680" y2="175" class="arrow"/>
  <line x1="920" y1="175" x2="980" y2="175" class="arrow"/>
  <line x1="1120" y1="230" x2="1120" y2="280" class="arrow"/>
  <line x1="1120" y1="280" x2="340" y2="280" class="arrow"/>
  <line x1="340" y1="280" x2="340" y2="320" class="arrow"/>
  <line x1="480" y1="380" x2="540" y2="380" class="arrow"/>
  <line x1="820" y1="380" x2="880" y2="380" class="arrow"/>
  <line x1="690" y1="440" x2="690" y2="520" class="arrow"/>

  <rect x="120" y="660" width="1160" height="70" rx="16" fill="#ffffff" stroke="#cbd5e1" stroke-width="2"/>
  <text x="700" y="702" text-anchor="middle" class="text">Non-goals remaining: full LightRAG vendor, live CRM/email, host code self-rewrite, always-on Playwright CI.</text>
</svg>
